<?xml version="1.0" encoding="utf-8"?>
<!-- Generator: Adobe Illustrator 21.1.0, SVG Export Plug-In . SVG Version: 6.00 Build 0)  -->
<svg version="1.1" id="Layer_1" xmlns="http://www.w3.org/2000/svg" xmlns:xlink="http://www.w3.org/1999/xlink" x="0px" y="0px"
	 viewBox="0 0 300 300" style="enable-background:new 0 0 300 300;" xml:space="preserve">
<style type="text/css">
	.st0{fill:url(#SVGID_1_);}
	.st1{fill:url(#SVGID_2_);}
	.st2{fill:url(#SVGID_3_);}
	.st3{fill:url(#SVGID_4_);}
	.st4{fill:url(#SVGID_5_);}
	.st5{fill:url(#SVGID_6_);}
	.st6{fill:url(#SVGID_7_);}
	.st7{fill:url(#SVGID_8_);}
	.st8{fill:url(#SVGID_9_);}
	.st9{fill:url(#SVGID_10_);}
	.st10{fill:url(#SVGID_11_);}
	.st11{fill:url(#SVGID_12_);}
	.st12{fill:url(#SVGID_13_);}
	.st13{fill:url(#SVGID_14_);}
</style>
<g>
	<linearGradient id="SVGID_1_" gradientUnits="userSpaceOnUse" x1="230.7814" y1="66.197" x2="224.4809" y2="328.7145">
		<stop  offset="0" style="stop-color:#EB2426"/>
		<stop  offset="1" style="stop-color:#932426"/>
	</linearGradient>
	<path class="st0" d="M226.2,268.4c-2.4,0-4.4-2-4.4-4.4v-16.9c0-2.4,2-4.4,4.4-4.4c2.4,0,4.4,2,4.4,4.4V264
		C230.6,266.4,228.7,268.4,226.2,268.4z"/>
	<linearGradient id="SVGID_2_" gradientUnits="userSpaceOnUse" x1="128.2967" y1="63.7373" x2="121.9963" y2="326.2549">
		<stop  offset="0" style="stop-color:#EB2426"/>
		<stop  offset="1" style="stop-color:#932426"/>
	</linearGradient>
	<path class="st1" d="M210.9,300H40.1c-10.9,0-19.7-8.9-19.7-19.7V81.9c0-2.4,2-4.4,4.4-4.4s4.4,2,4.4,4.4v198.3
		c0,6,4.9,10.9,10.9,10.9h170.8c6,0,10.9-4.9,10.9-10.9c0-2.4,2-4.4,4.4-4.4c2.4,0,4.4,2,4.4,4.4C230.6,291.1,221.8,300,210.9,300z"
		/>
	<linearGradient id="SVGID_3_" gradientUnits="userSpaceOnUse" x1="96.9812" y1="62.9857" x2="90.6808" y2="325.5033">
		<stop  offset="0" style="stop-color:#EB2426"/>
		<stop  offset="1" style="stop-color:#932426"/>
	</linearGradient>
	<path class="st2" d="M55.4,184.2c-1.9,0-3.6-1.2-4.2-3.1L18.2,76C15,65.6,20.8,54.6,31.1,51.4L172,8.1c2.3-0.7,4.8,0.6,5.5,2.9
		c0.7,2.3-0.6,4.8-2.9,5.5L33.7,59.8c-5.7,1.7-8.8,7.9-7.1,13.6l33,105.1c0.7,2.3-0.6,4.8-2.9,5.5C56.3,184.2,55.8,184.2,55.4,184.2
		z"/>
	<linearGradient id="SVGID_4_" gradientUnits="userSpaceOnUse" x1="172.5025" y1="64.7983" x2="166.2021" y2="327.3158">
		<stop  offset="0" style="stop-color:#EB2426"/>
		<stop  offset="1" style="stop-color:#932426"/>
	</linearGradient>
	<path class="st3" d="M98.5,290.1c-8.4,0-16.2-5.5-18.8-14l-23.8-77.5c-0.7-2.3,0.6-4.8,2.9-5.5c2.3-0.7,4.8,0.6,5.5,2.9l23.8,77.5
		c1.8,5.8,7.8,9,13.5,7.3l164.5-50.5c2.7-0.8,5-2.7,6.3-5.3c1.3-2.6,1.6-5.5,0.8-8.3L211.7,16.6c-1.8-5.8-7.8-9-13.5-7.3l-6.5,2
		c-2.3,0.7-4.8-0.6-5.5-2.9c-0.7-2.3,0.6-4.8,2.9-5.5l6.5-2c10.3-3.2,21.3,2.7,24.5,13.1l61.5,200.1c1.5,5,1.1,10.4-1.4,15
		c-2.4,4.7-6.5,8.1-11.5,9.6l-164.5,50.5C102.3,289.8,100.4,290.1,98.5,290.1z"/>
	<linearGradient id="SVGID_5_" gradientUnits="userSpaceOnUse" x1="154.4945" y1="64.3661" x2="148.1941" y2="326.8836">
		<stop  offset="0" style="stop-color:#EB2426"/>
		<stop  offset="1" style="stop-color:#932426"/>
	</linearGradient>
	<path class="st4" d="M89.7,174.4c-1.9,0-3.6-1.2-4.2-3.1c-0.7-2.3,0.6-4.8,2.9-5.5L213.8,128c2.3-0.7,4.8,0.6,5.5,2.9
		c0.7,2.3-0.6,4.8-2.9,5.5L91,174.2C90.6,174.3,90.2,174.4,89.7,174.4z"/>
	<linearGradient id="SVGID_6_" gradientUnits="userSpaceOnUse" x1="162.8501" y1="64.5666" x2="156.5497" y2="327.0842">
		<stop  offset="0" style="stop-color:#EB2426"/>
		<stop  offset="1" style="stop-color:#932426"/>
	</linearGradient>
	<path class="st5" d="M97.5,199.2c-1.9,0-3.6-1.2-4.2-3.1c-0.7-2.3,0.6-4.8,2.9-5.5l125.4-37.8c2.3-0.7,4.8,0.6,5.5,2.9
		c0.7,2.3-0.6,4.8-2.9,5.5L98.8,199C98.3,199.1,97.9,199.2,97.5,199.2z"/>
	<linearGradient id="SVGID_7_" gradientUnits="userSpaceOnUse" x1="171.1043" y1="64.7647" x2="164.8039" y2="327.2823">
		<stop  offset="0" style="stop-color:#EB2426"/>
		<stop  offset="1" style="stop-color:#932426"/>
	</linearGradient>
	<path class="st6" d="M105.2,222.6c-1.9,0-3.6-1.2-4.2-3.1c-0.7-2.3,0.6-4.8,2.9-5.5l125.4-37.8c2.3-0.7,4.8,0.6,5.5,2.9
		c0.7,2.3-0.6,4.8-2.9,5.5l-125.4,37.8C106,222.5,105.6,222.6,105.2,222.6z"/>
	<linearGradient id="SVGID_8_" gradientUnits="userSpaceOnUse" x1="179.4538" y1="64.9651" x2="173.1534" y2="327.4827">
		<stop  offset="0" style="stop-color:#EB2426"/>
		<stop  offset="1" style="stop-color:#932426"/>
	</linearGradient>
	<path class="st7" d="M113,247c-1.9,0-3.6-1.2-4.2-3.1c-0.7-2.3,0.6-4.8,2.9-5.5l125.4-37.8c2.3-0.7,4.8,0.6,5.5,2.9
		c0.7,2.3-0.6,4.8-2.9,5.5l-125.4,37.8C113.8,246.9,113.4,247,113,247z"/>
	<g>
		<linearGradient id="SVGID_9_" gradientUnits="userSpaceOnUse" x1="109.953" y1="101.4388" x2="155.4072" y2="101.4388">
			<stop  offset="0" style="stop-color:#EB2426"/>
			<stop  offset="1" style="stop-color:#932426"/>
		</linearGradient>
		<path class="st8" d="M138.8,105.6l-10.1,2.8l4.2,15.4c0.6,2.2,0.5,4-0.2,5.4c-0.7,1.4-1.9,2.4-3.5,2.8c-1.7,0.5-3.2,0.3-4.5-0.6
			c-1.3-0.8-2.3-2.4-2.9-4.5l-11.5-42c-0.7-2.4-0.6-4.3,0.3-5.7c0.8-1.3,2.5-2.3,4.9-3l14.2-3.9c4.2-1.1,7.5-1.7,9.9-1.7
			c2.4,0,4.6,0.5,6.6,1.5c2,1,3.7,2.4,5.1,4.3c1.4,1.8,2.5,4.1,3.2,6.7c1.5,5.6,1,10.2-1.7,14C150.3,100.9,145.6,103.7,138.8,105.6z
			 M129.3,81.3l-7.4,2l4.5,16.7l7.4-2c2.6-0.7,4.7-1.6,6.3-2.6c1.6-1,2.7-2.3,3.3-3.8c0.6-1.5,0.6-3.2,0-5.2
			c-0.7-2.4-1.9-4.2-3.7-5.3C137.7,79.9,134.2,80,129.3,81.3z"/>
	</g>
	<linearGradient id="SVGID_10_" gradientUnits="userSpaceOnUse" x1="132.7302" y1="63.8437" x2="126.4298" y2="326.3613">
		<stop  offset="0" style="stop-color:#EB2426"/>
		<stop  offset="1" style="stop-color:#932426"/>
	</linearGradient>
	<path class="st9" d="M155.5,82.5l-44.8,12.2c-1.8,0.5-3.6-0.6-4.1-2.3s0.6-3.6,2.3-4.1l44.8-12.2c1.8-0.5,3.6,0.6,4.1,2.3
		S157.2,82,155.5,82.5z"/>
	<linearGradient id="SVGID_11_" gradientUnits="userSpaceOnUse" x1="135.1069" y1="63.9008" x2="128.8065" y2="326.4183">
		<stop  offset="0" style="stop-color:#EB2426"/>
		<stop  offset="1" style="stop-color:#932426"/>
	</linearGradient>
	<path class="st10" d="M157.7,90.5l-44.8,12.2c-1.8,0.5-3.6-0.6-4.1-2.3s0.6-3.6,2.3-4.1l44.8-12.2c1.8-0.5,3.6,0.6,4.1,2.3
		C160.5,88.2,159.4,90,157.7,90.5z"/>
	<linearGradient id="SVGID_12_" gradientUnits="userSpaceOnUse" x1="59.4233" y1="62.0844" x2="53.1229" y2="324.6019">
		<stop  offset="0" style="stop-color:#EB2426"/>
		<stop  offset="1" style="stop-color:#932426"/>
	</linearGradient>
	<path class="st11" d="M59.1,119c-11.9,0-21.5-9.7-21.5-21.5V50.8c0-2.4,2-4.4,4.4-4.4c2.4,0,4.4,2,4.4,4.4v46.7
		c0,7,5.7,12.7,12.7,12.7s12.7-5.7,12.7-12.7V50.8c0-2.4,2-4.4,4.4-4.4c2.4,0,4.4,2,4.4,4.4v46.7C80.7,109.3,71,119,59.1,119z"/>
	<linearGradient id="SVGID_13_" gradientUnits="userSpaceOnUse" x1="67.1101" y1="62.2688" x2="60.8097" y2="324.7864">
		<stop  offset="0" style="stop-color:#EB2426"/>
		<stop  offset="1" style="stop-color:#932426"/>
	</linearGradient>
	<path class="st12" d="M57.8,93.8c-2.4,0-4.4-2-4.4-4.4V48.6c0-7.5,6.1-13.6,13.6-13.6c7.5,0,13.6,6.1,13.6,13.6V82
		c0,2.4-2,4.4-4.4,4.4c-2.4,0-4.4-2-4.4-4.4V48.6c0-2.7-2.2-4.8-4.8-4.8c-2.7,0-4.8,2.2-4.8,4.8v40.9C62.2,91.8,60.2,93.8,57.8,93.8
		z"/>
	<linearGradient id="SVGID_14_" gradientUnits="userSpaceOnUse" x1="63.3812" y1="62.1793" x2="57.0808" y2="324.6969">
		<stop  offset="0" style="stop-color:#EB2426"/>
		<stop  offset="1" style="stop-color:#932426"/>
	</linearGradient>
	<path class="st13" d="M41.7,66.9c-2.4,0-4.4-2-4.4-4.4V45c0-15,12.2-27.1,27.1-27.1c11.7,0,22.1,7.5,25.8,18.6
		c0.8,2.3-0.5,4.8-2.8,5.5c-2.3,0.8-4.8-0.5-5.5-2.8c-2.5-7.5-9.5-12.6-17.4-12.6c-10.1,0-18.4,8.2-18.4,18.4v17.5
		C46.1,64.9,44.1,66.9,41.7,66.9z"/>
</g>
</svg>
