<?xml version="1.0" encoding="utf-8"?>
<!-- Generator: Adobe Illustrator 21.1.0, SVG Export Plug-In . SVG Version: 6.00 Build 0)  -->
<svg version="1.1" id="Layer_1" xmlns="http://www.w3.org/2000/svg" xmlns:xlink="http://www.w3.org/1999/xlink" x="0px" y="0px"
	 viewBox="0 0 300 300" style="enable-background:new 0 0 300 300;" xml:space="preserve">
<style type="text/css">
	.st0{fill:url(#SVGID_1_);}
	.st1{fill:url(#SVGID_2_);}
	.st2{fill:url(#SVGID_3_);}
	.st3{fill:url(#SVGID_4_);}
	.st4{fill:url(#SVGID_5_);}
	.st5{fill:url(#SVGID_6_);}
	.st6{fill:url(#SVGID_7_);}
	.st7{fill:url(#SVGID_8_);}
	.st8{fill:url(#SVGID_9_);}
</style>
<g>
	<linearGradient id="SVGID_1_" gradientUnits="userSpaceOnUse" x1="100.0721" y1="0.3291" x2="93.7642" y2="263.1597">
		<stop  offset="0" style="stop-color:#EB2426"/>
		<stop  offset="1" style="stop-color:#932426"/>
	</linearGradient>
	<path class="st0" d="M157.2,300H35.8c-13.2,0-24-10.8-24-24V24c0-13.2,10.8-24,24-24h121.4c13.2,0,24,10.8,24,24v85.9
		c0,2.4-2,4.4-4.4,4.4s-4.4-2-4.4-4.4V24c0-8.4-6.8-15.2-15.2-15.2H35.8c-8.4,0-15.2,6.8-15.2,15.2v252c0,8.4,6.8,15.2,15.2,15.2
		h121.4c8.4,0,15.2-6.8,15.2-15.2V159.8c0-2.4,2-4.4,4.4-4.4s4.4,2,4.4,4.4V276C181.2,289.2,170.4,300,157.2,300z"/>
	<linearGradient id="SVGID_2_" gradientUnits="userSpaceOnUse" x1="97.3054" y1="0.2627" x2="90.9975" y2="263.0933">
		<stop  offset="0" style="stop-color:#EB2426"/>
		<stop  offset="1" style="stop-color:#932426"/>
	</linearGradient>
	<rect x="16.2" y="30.2" class="st1" width="160.6" height="8.8"/>
	<linearGradient id="SVGID_3_" gradientUnits="userSpaceOnUse" x1="102.1116" y1="0.378" x2="95.8036" y2="263.2086">
		<stop  offset="0" style="stop-color:#EB2426"/>
		<stop  offset="1" style="stop-color:#932426"/>
	</linearGradient>
	<rect x="16.2" y="230.6" class="st2" width="160.6" height="8.8"/>
	<linearGradient id="SVGID_4_" gradientUnits="userSpaceOnUse" x1="191.8" y1="2.5305" x2="185.4921" y2="265.3611">
		<stop  offset="0" style="stop-color:#EB2426"/>
		<stop  offset="1" style="stop-color:#932426"/>
	</linearGradient>
	<path class="st3" d="M283.8,139.1H93.4c-2.4,0-4.4-2-4.4-4.4s2-4.4,4.4-4.4h190.4c2.4,0,4.4,2,4.4,4.4S286.3,139.1,283.8,139.1z"/>
	<linearGradient id="SVGID_5_" gradientUnits="userSpaceOnUse" x1="125.1081" y1="0.9299" x2="118.8002" y2="263.7605">
		<stop  offset="0" style="stop-color:#EB2426"/>
		<stop  offset="1" style="stop-color:#932426"/>
	</linearGradient>
	<path class="st4" d="M92.8,139.1c-1.1,0-2.2-0.4-3.1-1.3c-1.7-1.7-1.8-4.5,0-6.2l59.5-60.3c1.7-1.7,4.5-1.8,6.2,0
		c1.7,1.7,1.8,4.5,0,6.2L96,137.8C95.1,138.7,94,139.1,92.8,139.1z"/>
	<linearGradient id="SVGID_6_" gradientUnits="userSpaceOnUse" x1="126.6094" y1="0.966" x2="120.3015" y2="263.7966">
		<stop  offset="0" style="stop-color:#EB2426"/>
		<stop  offset="1" style="stop-color:#932426"/>
	</linearGradient>
	<path class="st5" d="M153.4,201c-1.1,0-2.2-0.4-3.1-1.3l-61.5-61.1c-1.7-1.7-1.7-4.5,0-6.2c1.7-1.7,4.5-1.7,6.2,0l61.5,61.1
		c1.7,1.7,1.7,4.5,0,6.2C155.6,200.6,154.5,201,153.4,201z"/>
	<linearGradient id="SVGID_7_" gradientUnits="userSpaceOnUse" x1="102.8304" y1="0.3953" x2="96.5224" y2="263.2259">
		<stop  offset="0" style="stop-color:#EB2426"/>
		<stop  offset="1" style="stop-color:#932426"/>
	</linearGradient>
	<path class="st6" d="M96.5,285.3c-11.2,0-20.3-9.1-20.3-20.3c0-11.2,9.1-20.3,20.3-20.3s20.3,9.1,20.3,20.3
		C116.8,276.2,107.7,285.3,96.5,285.3z M96.5,253.5c-6.3,0-11.5,5.1-11.5,11.5c0,6.3,5.1,11.5,11.5,11.5c6.3,0,11.5-5.1,11.5-11.5
		C107.9,258.7,102.8,253.5,96.5,253.5z"/>
	<linearGradient id="SVGID_8_" gradientUnits="userSpaceOnUse" x1="86.8104" y1="-0.2206" x2="80.4277" y2="265.7255">
		<stop  offset="0" style="stop-color:#EB2426"/>
		<stop  offset="1" style="stop-color:#932426"/>
	</linearGradient>
	<path class="st7" d="M98.9,24.5H73.8c-1.3,0-2.4-1.1-2.4-2.4v-5.2c0-1.3,1.1-2.4,2.4-2.4h25.2c1.3,0,2.4,1.1,2.4,2.4v5.2
		C101.3,23.4,100.2,24.5,98.9,24.5z"/>
	<linearGradient id="SVGID_9_" gradientUnits="userSpaceOnUse" x1="114.5583" y1="0.4451" x2="108.1729" y2="266.5045">
		<stop  offset="0" style="stop-color:#EB2426"/>
		<stop  offset="1" style="stop-color:#932426"/>
	</linearGradient>
	<path class="st8" d="M119.1,24.5h-10c-1.3,0-2.4-1.1-2.4-2.4v-5.2c0-1.3,1.1-2.4,2.4-2.4h10c1.3,0,2.4,1.1,2.4,2.4v5.2
		C121.4,23.4,120.4,24.5,119.1,24.5z"/>
</g>
</svg>
