<?xml version="1.0" encoding="utf-8"?>
<!-- Generator: Adobe Illustrator 21.1.0, SVG Export Plug-In . SVG Version: 6.00 Build 0)  -->
<svg version="1.1" id="Layer_1" xmlns="http://www.w3.org/2000/svg" xmlns:xlink="http://www.w3.org/1999/xlink" x="0px" y="0px"
	 viewBox="0 0 300 300" style="enable-background:new 0 0 300 300;" xml:space="preserve">
<style type="text/css">
	.st0{fill:url(#SVGID_1_);}
	.st1{fill:url(#SVGID_2_);}
	.st2{fill:url(#SVGID_3_);}
	.st3{fill:url(#SVGID_4_);}
	.st4{fill:url(#SVGID_5_);}
	.st5{fill:url(#SVGID_6_);}
	.st6{fill:url(#SVGID_7_);}
	.st7{fill:url(#SVGID_8_);}
	.st8{fill:url(#SVGID_9_);}
	.st9{fill:url(#SVGID_10_);}
</style>
<g>
	<linearGradient id="SVGID_1_" gradientUnits="userSpaceOnUse" x1="150.4472" y1="84.5788" x2="146.8006" y2="236.5195">
		<stop  offset="0" style="stop-color:#EB2426"/>
		<stop  offset="1" style="stop-color:#932426"/>
	</linearGradient>
	<path class="st0" d="M248.3,237H49.4c-9.5,0-17.2-7.7-17.2-17.2V80.5c0-9.5,7.7-17.2,17.2-17.2h198.8c9.5,0,17.2,7.7,17.2,17.2
		v139.3C265.4,229.3,257.8,237,248.3,237z M49.4,71.4c-5,0-9.1,4.1-9.1,9.1v139.3c0,5,4.1,9.1,9.1,9.1h198.8c5,0,9.1-4.1,9.1-9.1
		V80.5c0-5-4.1-9.1-9.1-9.1H49.4z"/>
	<linearGradient id="SVGID_2_" gradientUnits="userSpaceOnUse" x1="63.8448" y1="82.5777" x2="60.1983" y2="234.5184">
		<stop  offset="0" style="stop-color:#EB2426"/>
		<stop  offset="1" style="stop-color:#932426"/>
	</linearGradient>
	<path class="st1" d="M62.3,213.4c-2.2,0-4-1.8-4-4V86.6c0-2.2,1.8-4,4-4s4,1.8,4,4v122.8C66.3,211.6,64.5,213.4,62.3,213.4z"/>
	<linearGradient id="SVGID_3_" gradientUnits="userSpaceOnUse" x1="82.3157" y1="82.9436" x2="78.6691" y2="234.8844">
		<stop  offset="0" style="stop-color:#EB2426"/>
		<stop  offset="1" style="stop-color:#932426"/>
	</linearGradient>
	<path class="st2" d="M81.1,183.4c-2.2,0-4-1.8-4-4V86.6c0-2.2,1.8-4,4-4s4,1.8,4,4v92.8C85.1,181.6,83.3,183.4,81.1,183.4z"/>
	<linearGradient id="SVGID_4_" gradientUnits="userSpaceOnUse" x1="104.2518" y1="83.4701" x2="100.6052" y2="235.4108">
		<stop  offset="0" style="stop-color:#EB2426"/>
		<stop  offset="1" style="stop-color:#932426"/>
	</linearGradient>
	<path class="st3" d="M103.1,183.4c-2.2,0-4-1.8-4-4V86.6c0-2.2,1.8-4,4-4s4,1.8,4,4v92.8C107.1,181.6,105.3,183.4,103.1,183.4z"/>
	<linearGradient id="SVGID_5_" gradientUnits="userSpaceOnUse" x1="124.1355" y1="83.9473" x2="120.4889" y2="235.888">
		<stop  offset="0" style="stop-color:#EB2426"/>
		<stop  offset="1" style="stop-color:#932426"/>
	</linearGradient>
	<path class="st4" d="M123,183.4c-2.2,0-4-1.8-4-4V86.6c0-2.2,1.8-4,4-4s4,1.8,4,4v92.8C127,181.6,125.2,183.4,123,183.4z"/>
	<linearGradient id="SVGID_6_" gradientUnits="userSpaceOnUse" x1="142.8532" y1="84.3966" x2="139.2066" y2="236.3373">
		<stop  offset="0" style="stop-color:#EB2426"/>
		<stop  offset="1" style="stop-color:#932426"/>
	</linearGradient>
	<path class="st5" d="M141.7,183.4c-2.2,0-4-1.8-4-4V86.6c0-2.2,1.8-4,4-4s4,1.8,4,4v92.8C145.7,181.6,143.9,183.4,141.7,183.4z"/>
	<linearGradient id="SVGID_7_" gradientUnits="userSpaceOnUse" x1="162.9579" y1="84.8791" x2="159.3113" y2="236.8198">
		<stop  offset="0" style="stop-color:#EB2426"/>
		<stop  offset="1" style="stop-color:#932426"/>
	</linearGradient>
	<path class="st6" d="M161.8,183.4c-2.2,0-4-1.8-4-4V86.6c0-2.2,1.8-4,4-4c2.2,0,4,1.8,4,4v92.8C165.8,181.6,164,183.4,161.8,183.4z
		"/>
	<linearGradient id="SVGID_8_" gradientUnits="userSpaceOnUse" x1="184.1353" y1="85.3873" x2="180.4887" y2="237.328">
		<stop  offset="0" style="stop-color:#EB2426"/>
		<stop  offset="1" style="stop-color:#932426"/>
	</linearGradient>
	<path class="st7" d="M183,183.4c-2.2,0-4-1.8-4-4V86.6c0-2.2,1.8-4,4-4s4,1.8,4,4v92.8C187,181.6,185.2,183.4,183,183.4z"/>
	<linearGradient id="SVGID_9_" gradientUnits="userSpaceOnUse" x1="207.9935" y1="85.9599" x2="204.3469" y2="237.9006">
		<stop  offset="0" style="stop-color:#EB2426"/>
		<stop  offset="1" style="stop-color:#932426"/>
	</linearGradient>
	<path class="st8" d="M206.9,183.4c-2.2,0-4-1.8-4-4V86.6c0-2.2,1.8-4,4-4s4,1.8,4,4v92.8C210.9,181.6,209.1,183.4,206.9,183.4z"/>
	<linearGradient id="SVGID_10_" gradientUnits="userSpaceOnUse" x1="235.9842" y1="86.6317" x2="232.3376" y2="238.5724">
		<stop  offset="0" style="stop-color:#EB2426"/>
		<stop  offset="1" style="stop-color:#932426"/>
	</linearGradient>
	<path class="st9" d="M234.5,215c-2.2,0-4-1.8-4-4V86.6c0-2.2,1.8-4,4-4s4,1.8,4,4V211C238.5,213.2,236.7,215,234.5,215z"/>
</g>
</svg>
