<?xml version="1.0" encoding="utf-8"?>
<!-- Generator: Adobe Illustrator 21.1.0, SVG Export Plug-In . SVG Version: 6.00 Build 0)  -->
<svg version="1.1" id="Layer_1" xmlns="http://www.w3.org/2000/svg" xmlns:xlink="http://www.w3.org/1999/xlink" x="0px" y="0px"
	 viewBox="0 0 300 300" style="enable-background:new 0 0 300 300;" xml:space="preserve">
<style type="text/css">
	.st0{fill:url(#SVGID_1_);}
	.st1{fill:url(#SVGID_2_);}
	.st2{fill:url(#SVGID_3_);}
	.st3{fill:url(#SVGID_4_);}
</style>
<g>
	<linearGradient id="SVGID_1_" gradientUnits="userSpaceOnUse" x1="151.2567" y1="27.4683" x2="144.9577" y2="289.9263">
		<stop  offset="0" style="stop-color:#EB2426"/>
		<stop  offset="1" style="stop-color:#932426"/>
	</linearGradient>
	<path class="st0" d="M149.6,300l-1.9-0.9c-26.8-12.9-49.4-28.3-67.4-45.8c-14.5-14.1-26-29.5-34.2-45.9
		c-13.8-27.5-13.6-48.3-13.5-50l0.2-125.6l0-0.2c0.5-5.7,2.6-10,6.1-12.6c5-3.7,10.9-2.5,11.5-2.3l0.5,0.1l0.5,0.2
		c45.9,23.4,61.1,9.1,75.7-4.8c3.2-3,6.3-5.9,9.6-8.4c6.8-5,17.5-5.1,24.4-0.1c3.5,2.5,6.7,5.4,10,8.5c15.1,13.9,30.7,28.2,76.6,4.8
		l0.5-0.2l0.5-0.1c0.6-0.1,6.5-1.3,11.5,2.3c3.6,2.6,5.7,6.9,6.1,12.6l0,0.4l0.2,125.4c0,1.7,0.3,22.4-13.5,50
		c-8.2,16.4-19.7,31.8-34.2,45.9c-18,17.5-40.7,32.9-67.4,45.8L149.6,300z M41.4,32.2l-0.2,125.4c-0.2,6.8,2.2,25.4,12.9,46.4
		c7.8,15.4,18.7,30,32.5,43.3c16.8,16.3,38,30.7,62.9,43c24.9-12.2,46.1-26.7,62.9-43c13.8-13.3,24.7-27.9,32.5-43.3
		c10.6-21,13-39.5,12.9-46.4l0-0.1l-0.2-125.3c-0.3-3-1.1-5-2.6-6.1c-1.4-1-3.2-1-4-0.9c-50.9,25.7-70.3,7.8-86-6.5
		c-3.2-2.9-6.1-5.6-9.2-7.8c-3.7-2.7-10.4-2.6-14,0.1c-2.9,2.2-5.8,4.9-8.8,7.8C117.9,33,98.9,50.9,48,25.2c-0.8-0.1-2.6-0.1-4.1,1
		C42.6,27.2,41.7,29.2,41.4,32.2z"/>
	<linearGradient id="SVGID_2_" gradientUnits="userSpaceOnUse" x1="151.5368" y1="27.475" x2="145.2379" y2="289.933">
		<stop  offset="0" style="stop-color:#EB2426"/>
		<stop  offset="1" style="stop-color:#932426"/>
	</linearGradient>
	<path class="st1" d="M149.5,272.7c-1.4,0-2.8-0.3-4.1-1c-18.3-9.9-34.3-21.3-47.3-33.6c-12.5-11.9-22.6-24.8-29.8-38.5
		C56.9,178,56,161.4,55.9,158.3l0-0.4l0-0.1l0-14.4c0-2.4,2-4.4,4.4-4.4c0,0,0,0,0,0c2.4,0,4.4,2,4.4,4.4l0,14.8
		c0.1,2.1,0.9,17.4,11.4,37.3c6.8,12.8,16.2,25,28.1,36.2c12.5,11.8,27.7,22.7,45.4,32.2c17.6-9.6,32.9-20.4,45.4-32.2
		c11.8-11.2,21.3-23.4,28.1-36.2c10.6-20,11.3-35.6,11.4-37.3l-0.1-1.3l0.1-0.2l-0.1-99.4c-9.9,2.9-19,4.4-27.9,4.4
		c-29.2,0-46-15.5-57.1-25.7l-0.2-0.2c-10.9,10.3-27.5,25.9-56.6,25.9c-8.8,0-17.9-1.4-27.7-4.4l0,32.2c0,2.4-2,4.4-4.4,4.4
		c0,0,0,0,0,0c-2.4,0-4.4-2-4.4-4.4L56,57c0-2.7,1.3-5.3,3.5-6.9c2.2-1.6,5-2.1,7.7-1.3c9.1,2.7,17.4,4,25.4,4
		c25.7,0,40.7-14.2,50.6-23.5l0,0c3.3-3.1,8.4-3.1,11.7-0.1l0.3,0.3c10.1,9.3,25.4,23.4,51.2,23.4c8.1,0,16.4-1.3,25.5-4
		c2.7-0.8,5.4-0.3,7.7,1.3c2.2,1.6,3.5,4.2,3.5,6.9l0.1,101c0,0.1,0,0.1,0,0.2l0,0.1c0,0,0,0,0,0.1c-0.1,3.1-1.1,19.8-12.4,41.1
		c-7.2,13.6-17.3,26.6-29.8,38.5c-13.1,12.4-29,23.7-47.3,33.6C152.4,272.3,151,272.7,149.5,272.7z"/>
	<linearGradient id="SVGID_3_" gradientUnits="userSpaceOnUse" x1="151.1609" y1="27.466" x2="144.8619" y2="289.924">
		<stop  offset="0" style="stop-color:#EB2426"/>
		<stop  offset="1" style="stop-color:#932426"/>
	</linearGradient>
	<path class="st2" d="M160.8,201.7h-24.9c-5.2,0-9.5-4.3-9.5-9.5v-26.8H99.6c-5.2,0-9.5-4.3-9.5-9.5v-24.9c0-5.2,4.3-9.5,9.5-9.5
		h26.8V94.6c0-5.2,4.3-9.5,9.5-9.5h24.9c5.2,0,9.5,4.3,9.5,9.5v26.8h26.8c5.2,0,9.5,4.3,9.5,9.5v24.9c0,5.2-4.3,9.5-9.5,9.5h-26.8
		v26.8C170.3,197.4,166.1,201.7,160.8,201.7z M99.6,130.2c-0.4,0-0.7,0.3-0.7,0.7v24.9c0,0.4,0.3,0.7,0.7,0.7h35.6v35.6
		c0,0.4,0.3,0.7,0.7,0.7h24.9c0.4,0,0.7-0.3,0.7-0.7v-35.6h35.6c0.4,0,0.7-0.3,0.7-0.7v-24.9c0-0.4-0.3-0.7-0.7-0.7h-35.6V94.6
		c0-0.4-0.3-0.7-0.7-0.7h-24.9c-0.4,0-0.7,0.3-0.7,0.7v35.6H99.6z"/>
	<linearGradient id="SVGID_4_" gradientUnits="userSpaceOnUse" x1="63.0463" y1="25.3512" x2="56.7473" y2="287.8092">
		<stop  offset="0" style="stop-color:#EB2426"/>
		<stop  offset="1" style="stop-color:#932426"/>
	</linearGradient>
	<circle class="st3" cx="60.9" cy="113.9" r="5.3"/>
</g>
</svg>
