<?xml version="1.0" encoding="utf-8"?>
<!-- Generator: Adobe Illustrator 21.1.0, SVG Export Plug-In . SVG Version: 6.00 Build 0)  -->
<svg version="1.1" id="Layer_1" xmlns="http://www.w3.org/2000/svg" xmlns:xlink="http://www.w3.org/1999/xlink" x="0px" y="0px"
	 viewBox="0 0 300 300" style="enable-background:new 0 0 300 300;" xml:space="preserve">
<style type="text/css">
	.st0{fill:url(#SVGID_1_);}
	.st1{fill:url(#SVGID_2_);}
	.st2{fill:url(#SVGID_3_);}
	.st3{fill:url(#SVGID_4_);}
	.st4{fill:url(#SVGID_5_);}
	.st5{fill:url(#SVGID_6_);}
	.st6{fill:url(#SVGID_7_);}
	.st7{fill:url(#SVGID_8_);}
	.st8{fill:url(#SVGID_9_);}
	.st9{fill:url(#SVGID_10_);}
	.st10{fill:url(#SVGID_11_);}
	.st11{fill:url(#SVGID_12_);}
	.st12{fill:url(#SVGID_13_);}
	.st13{fill:url(#SVGID_14_);}
	.st14{fill:url(#SVGID_15_);}
	.st15{fill:url(#SVGID_16_);}
	.st16{fill:url(#SVGID_17_);}
	.st17{fill:url(#SVGID_18_);}
	.st18{fill:url(#SVGID_19_);}
	.st19{fill:url(#SVGID_20_);}
	.st20{fill:url(#SVGID_21_);}
	.st21{fill:url(#SVGID_22_);}
	.st22{fill:url(#SVGID_23_);}
</style>
<g>
	<linearGradient id="SVGID_1_" gradientUnits="userSpaceOnUse" x1="41.8873" y1="-2.6942" x2="35.5808" y2="260.0748">
		<stop  offset="0" style="stop-color:#EB2426"/>
		<stop  offset="1" style="stop-color:#932426"/>
	</linearGradient>
	<path class="st0" d="M42.6,173.8h-9.8c-2.4,0-4.4-2-4.4-4.4s2-4.4,4.4-4.4h9.8c2.4,0,4.4,2,4.4,4.4S45.1,173.8,42.6,173.8z"/>
	<linearGradient id="SVGID_2_" gradientUnits="userSpaceOnUse" x1="79.5993" y1="-1.7891" x2="73.2928" y2="260.9799">
		<stop  offset="0" style="stop-color:#EB2426"/>
		<stop  offset="1" style="stop-color:#932426"/>
	</linearGradient>
	<path class="st1" d="M88,173.8H62.9c-2.4,0-4.4-2-4.4-4.4s2-4.4,4.4-4.4H88c2.4,0,4.4,2,4.4,4.4S90.5,173.8,88,173.8z"/>
	<linearGradient id="SVGID_3_" gradientUnits="userSpaceOnUse" x1="42.3697" y1="-2.6826" x2="36.0632" y2="260.0864">
		<stop  offset="0" style="stop-color:#EB2426"/>
		<stop  offset="1" style="stop-color:#932426"/>
	</linearGradient>
	<path class="st2" d="M42.6,193.9h-9.8c-2.4,0-4.4-2-4.4-4.4s2-4.4,4.4-4.4h9.8c2.4,0,4.4,2,4.4,4.4S45.1,193.9,42.6,193.9z"/>
	<linearGradient id="SVGID_4_" gradientUnits="userSpaceOnUse" x1="80.0817" y1="-1.7776" x2="73.7752" y2="260.9915">
		<stop  offset="0" style="stop-color:#EB2426"/>
		<stop  offset="1" style="stop-color:#932426"/>
	</linearGradient>
	<path class="st3" d="M88,193.9H62.9c-2.4,0-4.4-2-4.4-4.4s2-4.4,4.4-4.4H88c2.4,0,4.4,2,4.4,4.4S90.5,193.9,88,193.9z"/>
	<linearGradient id="SVGID_5_" gradientUnits="userSpaceOnUse" x1="42.8521" y1="-2.6711" x2="36.5456" y2="260.0979">
		<stop  offset="0" style="stop-color:#EB2426"/>
		<stop  offset="1" style="stop-color:#932426"/>
	</linearGradient>
	<path class="st4" d="M42.6,214h-9.8c-2.4,0-4.4-2-4.4-4.4s2-4.4,4.4-4.4h9.8c2.4,0,4.4,2,4.4,4.4S45.1,214,42.6,214z"/>
	<linearGradient id="SVGID_6_" gradientUnits="userSpaceOnUse" x1="80.5641" y1="-1.766" x2="74.2576" y2="261.003">
		<stop  offset="0" style="stop-color:#EB2426"/>
		<stop  offset="1" style="stop-color:#932426"/>
	</linearGradient>
	<path class="st5" d="M88,214H62.9c-2.4,0-4.4-2-4.4-4.4s2-4.4,4.4-4.4H88c2.4,0,4.4,2,4.4,4.4S90.5,214,88,214z"/>
	<linearGradient id="SVGID_7_" gradientUnits="userSpaceOnUse" x1="138.2485" y1="10.1299" x2="131.9421" y2="272.8989">
		<stop  offset="0" style="stop-color:#EB2426"/>
		<stop  offset="1" style="stop-color:#932426"/>
	</linearGradient>
	<path class="st6" d="M137.7,239.6H128c-2.4,0-4.4-2-4.4-4.4s2-4.4,4.4-4.4h9.8c2.4,0,4.4,2,4.4,4.4S140.2,239.6,137.7,239.6z"/>
	<linearGradient id="SVGID_8_" gradientUnits="userSpaceOnUse" x1="180.9856" y1="11.1556" x2="174.6792" y2="273.9246">
		<stop  offset="0" style="stop-color:#EB2426"/>
		<stop  offset="1" style="stop-color:#932426"/>
	</linearGradient>
	<path class="st7" d="M193.2,239.6H158c-2.4,0-4.4-2-4.4-4.4s2-4.4,4.4-4.4h35.1c2.4,0,4.4,2,4.4,4.4S195.6,239.6,193.2,239.6z"/>
	<linearGradient id="SVGID_9_" gradientUnits="userSpaceOnUse" x1="178.5315" y1="11.0967" x2="172.225" y2="273.8657">
		<stop  offset="0" style="stop-color:#EB2426"/>
		<stop  offset="1" style="stop-color:#932426"/>
	</linearGradient>
	<path class="st8" d="M217.4,259.3H128c-2.4,0-4.4-2-4.4-4.4s2-4.4,4.4-4.4h89.4c2.4,0,4.4,2,4.4,4.4S219.8,259.3,217.4,259.3z"/>
	<linearGradient id="SVGID_10_" gradientUnits="userSpaceOnUse" x1="34.1962" y1="7.6326" x2="27.8898" y2="270.4016">
		<stop  offset="0" style="stop-color:#EB2426"/>
		<stop  offset="1" style="stop-color:#932426"/>
	</linearGradient>
	<path class="st9" d="M32.9,69.4c-2.4,0-4.4-2-4.4-4.4v-4.7c0-2.4,2-4.4,4.4-4.4s4.4,2,4.4,4.4V65C37.3,67.4,35.3,69.4,32.9,69.4z"
		/>
	<linearGradient id="SVGID_11_" gradientUnits="userSpaceOnUse" x1="35.0972" y1="7.6542" x2="28.7908" y2="270.4232">
		<stop  offset="0" style="stop-color:#EB2426"/>
		<stop  offset="1" style="stop-color:#932426"/>
	</linearGradient>
	<path class="st10" d="M32.9,125.2c-2.4,0-4.4-2-4.4-4.4V79.6c0-2.4,2-4.4,4.4-4.4s4.4,2,4.4,4.4v41.2
		C37.3,123.2,35.3,125.2,32.9,125.2z"/>
	<linearGradient id="SVGID_12_" gradientUnits="userSpaceOnUse" x1="203.5106" y1="11.6962" x2="197.2041" y2="274.4651">
		<stop  offset="0" style="stop-color:#EB2426"/>
		<stop  offset="1" style="stop-color:#932426"/>
	</linearGradient>
	<path class="st11" d="M278.8,299.9H117.7c-7.6,0-13.8-6.2-13.8-13.8V174.9c0-7.6,6.2-13.8,13.8-13.8h161.2
		c7.6,0,13.8,6.2,13.8,13.8v111.2C292.7,293.7,286.5,299.9,278.8,299.9z M117.7,169.9c-2.8,0-5,2.3-5,5v111.2c0,2.8,2.3,5,5,5h161.2
		c2.8,0,5-2.3,5-5V174.9c0-2.8-2.3-5-5-5H117.7z"/>
	<linearGradient id="SVGID_13_" gradientUnits="userSpaceOnUse" x1="202.5454" y1="11.673" x2="196.2389" y2="274.442">
		<stop  offset="0" style="stop-color:#EB2426"/>
		<stop  offset="1" style="stop-color:#932426"/>
	</linearGradient>
	<path class="st12" d="M288.3,194.7h-180c-2.4,0-4.4-2-4.4-4.4s2-4.4,4.4-4.4h180c2.4,0,4.4,2,4.4,4.4S290.7,194.7,288.3,194.7z"/>
	<linearGradient id="SVGID_14_" gradientUnits="userSpaceOnUse" x1="203.1449" y1="11.6874" x2="196.8384" y2="274.4564">
		<stop  offset="0" style="stop-color:#EB2426"/>
		<stop  offset="1" style="stop-color:#932426"/>
	</linearGradient>
	<path class="st13" d="M288.3,219.6h-180c-2.4,0-4.4-2-4.4-4.4s2-4.4,4.4-4.4h180c2.4,0,4.4,2,4.4,4.4S290.7,219.6,288.3,219.6z"/>
	<g>
		<linearGradient id="SVGID_15_" gradientUnits="userSpaceOnUse" x1="77.8164" y1="100.2581" x2="123.4469" y2="100.2581">
			<stop  offset="0" style="stop-color:#EB2426"/>
			<stop  offset="1" style="stop-color:#932426"/>
		</linearGradient>
		<path class="st14" d="M101,106.4H89.9v16.9c0,2.4-0.6,4.3-1.7,5.5c-1.1,1.3-2.6,1.9-4.3,1.9c-1.8,0-3.3-0.6-4.4-1.9
			c-1.1-1.2-1.7-3.1-1.7-5.4V77.3c0-2.7,0.6-4.6,1.8-5.7c1.2-1.1,3.2-1.7,5.8-1.7H101c4.6,0,8.1,0.4,10.6,1.1
			c2.4,0.7,4.6,1.8,6.3,3.4c1.8,1.6,3.1,3.5,4.1,5.8c0.9,2.3,1.4,4.9,1.4,7.7c0,6.1-1.9,10.7-5.6,13.9
			C114.1,104.8,108.5,106.4,101,106.4z M98.1,78.9h-8.2v18.3h8.2c2.9,0,5.2-0.3,7.2-0.9c1.9-0.6,3.4-1.6,4.4-2.9
			c1-1.4,1.5-3.1,1.5-5.3c0-2.6-0.8-4.8-2.3-6.4C107.1,79.8,103.5,78.9,98.1,78.9z"/>
	</g>
	<linearGradient id="SVGID_16_" gradientUnits="userSpaceOnUse" x1="102.005" y1="-1.1505" x2="95.6986" y2="261.6185">
		<stop  offset="0" style="stop-color:#EB2426"/>
		<stop  offset="1" style="stop-color:#932426"/>
	</linearGradient>
	<path class="st15" d="M124.5,87.4H75.4c-1.9,0-3.5-1.6-3.5-3.5c0-1.9,1.6-3.5,3.5-3.5h49.2c1.9,0,3.5,1.6,3.5,3.5
		C128.1,85.8,126.5,87.4,124.5,87.4z"/>
	<linearGradient id="SVGID_17_" gradientUnits="userSpaceOnUse" x1="102.2158" y1="-1.1454" x2="95.9093" y2="261.6236">
		<stop  offset="0" style="stop-color:#EB2426"/>
		<stop  offset="1" style="stop-color:#932426"/>
	</linearGradient>
	<path class="st16" d="M124.5,96.2H75.4c-1.9,0-3.5-1.6-3.5-3.5s1.6-3.5,3.5-3.5h49.2c1.9,0,3.5,1.6,3.5,3.5S126.5,96.2,124.5,96.2z
		"/>
	<linearGradient id="SVGID_18_" gradientUnits="userSpaceOnUse" x1="94.6401" y1="0.2958" x2="88.3337" y2="263.0648">
		<stop  offset="0" style="stop-color:#EB2426"/>
		<stop  offset="1" style="stop-color:#932426"/>
	</linearGradient>
	<path class="st17" d="M128.1,291.1H31.7c-8.4,0-15.2-6.8-15.2-15.2V24c0-8.4,6.8-15.2,15.2-15.2h121.4c8.4,0,15.2,6.8,15.2,15.2
		v137.1c0,2.4,2,4.4,4.4,4.4s4.4-2,4.4-4.4V24c0-13.2-10.8-24-24-24H31.7c-13.2,0-24,10.8-24,24v251.9c0,13.2,10.8,24,24,24h96.3
		V291.1z"/>
	<linearGradient id="SVGID_19_" gradientUnits="userSpaceOnUse" x1="93.2545" y1="2.3648" x2="86.9481" y2="265.1339">
		<stop  offset="0" style="stop-color:#EB2426"/>
		<stop  offset="1" style="stop-color:#932426"/>
	</linearGradient>
	<rect x="12.1" y="32.3" class="st18" width="160.6" height="8.8"/>
	<linearGradient id="SVGID_20_" gradientUnits="userSpaceOnUse" x1="66.6932" y1="0.4321" x2="60.3868" y2="263.2011">
		<stop  offset="0" style="stop-color:#EB2426"/>
		<stop  offset="1" style="stop-color:#932426"/>
	</linearGradient>
	<rect x="12.1" y="231.4" class="st19" width="97.8" height="8.8"/>
	<linearGradient id="SVGID_21_" gradientUnits="userSpaceOnUse" x1="98.676" y1="1.2022" x2="92.3695" y2="263.9712">
		<stop  offset="0" style="stop-color:#EB2426"/>
		<stop  offset="1" style="stop-color:#932426"/>
	</linearGradient>
	<path class="st20" d="M92.3,286c-11.2,0-20.3-9.1-20.3-20.3c0-11.2,9.1-20.3,20.3-20.3s20.3,9.1,20.3,20.3
		C112.6,276.9,103.5,286,92.3,286z M92.3,254.3c-6.3,0-11.5,5.1-11.5,11.5c0,6.3,5.1,11.5,11.5,11.5c6.3,0,11.5-5.1,11.5-11.5
		C103.8,259.4,98.6,254.3,92.3,254.3z"/>
	<linearGradient id="SVGID_22_" gradientUnits="userSpaceOnUse" x1="82.7619" y1="1.8817" x2="76.3807" y2="267.7648">
		<stop  offset="0" style="stop-color:#EB2426"/>
		<stop  offset="1" style="stop-color:#932426"/>
	</linearGradient>
	<path class="st21" d="M94.9,26.6H69.7c-1.3,0-2.4-1.1-2.4-2.4V19c0-1.3,1.1-2.4,2.4-2.4h25.2c1.3,0,2.4,1.1,2.4,2.4v5.2
		C97.2,25.5,96.2,26.6,94.9,26.6z"/>
	<linearGradient id="SVGID_23_" gradientUnits="userSpaceOnUse" x1="110.5033" y1="2.5472" x2="104.1194" y2="268.5437">
		<stop  offset="0" style="stop-color:#EB2426"/>
		<stop  offset="1" style="stop-color:#932426"/>
	</linearGradient>
	<path class="st22" d="M115,26.6h-10c-1.3,0-2.4-1.1-2.4-2.4V19c0-1.3,1.1-2.4,2.4-2.4h10c1.3,0,2.4,1.1,2.4,2.4v5.2
		C117.4,25.5,116.3,26.6,115,26.6z"/>
</g>
</svg>
